<svg class="icon" xmlns="http://www.w3.org/2000/svg" width="18" height="14" viewBox="0 0 18 14">
  <path d="M5.457,7 L5.457,11.308 L3.303,11.308 L3.303,7 L5.457,7 Z M8.687,2.692 L8.687,11.308 L6.535,11.308 L6.535,2.692 L8.689,2.692 L8.687,2.692 Z M0.612,0.538 C0.611,0.241 0.852,0 1.149,0 L17.303,0 C17.601,0 17.842,0.241 17.842,0.538 L17.842,12.923 L16.765,12.923 L16.765,1.077 L1.149,1.077 C1.0061401,1.07700025 0.869145928,1.02018102 0.768222561,0.919070059 C0.667299195,0.817959103 0.610734461,0.680859655 0.611,0.538 L0.612,0.538 Z M17.842,12.833 L17.842,13.462 C17.842,13.7591292 17.6011292,14 17.304,14 L1.15,14 C0.852870805,14 0.612,13.7591292 0.612,13.462 L0.612,0.538 C0.611,0.241 0.852,0 1.149,0 L1.688,0 L1.688,12.833 L17.842,12.833 Z M11.92,4.846 L11.92,11.308 L9.765,11.308 L9.765,4.846 L11.919,4.846 L11.92,4.846 Z M15.15,1.616 L15.15,11.308 L12.997,11.308 L12.997,1.615 L15.15,1.615 L15.15,1.616 Z"/>
</svg>
