<svg class="icon" xmlns="http://www.w3.org/2000/svg" width="10" height="14" viewBox="0 0 10 14">
  <g>
    <path d="M8.4875,1.6625 C7.6125,0.6125 6.2125,0 4.8125,0 C3.4125,0 2.0125,0.6125 1.1375,1.6625 C0.2625,2.625 -0.0875,3.9375 0.0875,5.1625 C0.2625,6.475 0.7875,7.4375 1.925,8.4 C2.3625,8.75 2.5375,9.1 2.7125,9.45 C2.7125,9.5375 2.8,9.625 2.8,9.7125 C2.7125,9.8 2.625,9.8875 2.625,10.0625 C2.625,10.325 2.8,10.5 3.0625,10.5 C2.8,10.5 2.625,10.675 2.625,10.9375 C2.625,11.2 2.8,11.375 3.0625,11.375 C2.8,11.375 2.625,11.55 2.625,11.8125 C2.625,12.075 2.8,12.25 3.0625,12.25 C2.8,12.25 2.625,12.425 2.625,12.6875 C2.625,12.95 2.8,13.125 3.0625,13.125 L3.5,13.125 C3.5,13.5625 4.1125,14 4.8125,14 C5.5125,14 6.125,13.5625 6.125,13.125 L6.5625,13.125 C6.825,13.125 7,12.95 7,12.6875 C7,12.425 6.825,12.25 6.5625,12.25 C6.825,12.25 7,12.075 7,11.8125 C7,11.55 6.825,11.375 6.5625,11.375 C6.825,11.375 7,11.2 7,10.9375 C7,10.675 6.825,10.5 6.5625,10.5 C6.825,10.5 7,10.325 7,10.0625 C7,9.8875 6.9125,9.8 6.825,9.7125 C6.825,9.625 6.9125,9.625 6.9125,9.5375 C7.0875,9.1875 7.2625,8.8375 7.7,8.4875 C8.8375,7.525 9.3625,6.5625 9.5375,5.1625 C9.7125,3.9375 9.3625,2.7125 8.4875,1.6625 L8.4875,1.6625 Z M8.75,5.075 C8.575,6.2125 8.1375,7 7.175,7.875 C6.65,8.3125 6.3875,8.75 6.125,9.1 C5.95,9.5375 5.8625,9.625 5.6875,9.625 L3.9375,9.625 C3.7625,9.625 3.675,9.5375 3.5,9.1 C3.325,8.75 3.0625,8.225 2.5375,7.7 C1.4,6.7375 1.1375,5.95 0.9625,5.075 C0.7875,4.1125 1.1375,3.0625 1.75,2.275 C2.5375,1.4 3.675,0.875 4.8125,0.875 C5.95,0.875 7.0875,1.4 7.875,2.275 C8.4875,3.0625 8.8375,4.1125 8.75,5.075 L8.75,5.075 Z"/>
    <path d="M7.875,4.375 L7,4.375 C7,3.7625 6.3,2.625 5.25,2.625 L5.25,1.75 C6.825,1.75 7.875,3.325 7.875,4.375 Z"/>
  </g>
</svg>
