<svg class="icon" xmlns="http://www.w3.org/2000/svg" width="15" height="14" viewBox="0 0 15 14">
  <path d="M7.953,0 C4.093,0 0.953,3.14 0.953,7 C0.953,10.86 4.093,14 7.953,14 C11.813,14 14.953,10.86 14.953,7 C14.953,3.14 11.813,0 7.953,0 Z M13.368,6.436 C12.0195256,6.21513341 10.6394375,6.2846833 9.32,6.64 C9.18,6.3 9.022,5.972 8.86,5.642 C9.98406499,4.99957547 10.9667287,4.13664093 11.749,3.105 C12.6625608,3.99114093 13.2356185,5.17017448 13.368,6.436 L13.368,6.436 Z M11.165,2.614 C10.4491913,3.56349667 9.54967921,4.35928428 8.52,4.954 C7.90658663,3.82801393 7.17477741,2.77069543 6.337,1.8 C7.98405865,1.28590488 9.77755263,1.58828767 11.165,2.614 Z M5.578,2.11 C6.448,3.093 7.206,4.167 7.828,5.312 C6.19755916,6.06961243 4.37524932,6.31340087 2.603,6.011 C2.92070396,4.31280826 4.02435596,2.86563298 5.578,2.11 L5.578,2.11 Z M2.508,7 C2.508,6.922 2.518,6.848 2.52,6.771 C3.03982224,6.86252802 3.56621906,6.9116896 4.094,6.918 C5.50325436,6.91183948 6.89397915,6.59641736 8.168,5.994 C8.309,6.284 8.452,6.573 8.576,6.871 C6.64310031,7.55953155 4.98065152,8.84744762 3.831,10.547 C2.97836313,9.56197447 2.50905377,8.3027912 2.509,7 L2.508,7 Z M4.37,11.089 C5.44991892,9.47363499 7.02209423,8.24970196 8.853,7.599 C9.38765088,9.04560577 9.72567002,10.5574426 9.858,12.094 C9.24929572,12.3245681 8.60390846,12.4431432 7.953,12.444 C6.63356176,12.4444355 5.35939584,11.9629337 4.37,11.09 L4.37,11.089 Z M10.603,11.751 C10.4514393,10.2547926 10.1134873,8.78339093 9.597,7.371 C10.8345572,7.04906085 12.1271015,6.9985735 13.386,7.223 C13.3085653,9.1135039 12.2547418,10.828097 10.603,11.751 L10.603,11.751 Z"/>
</svg>
