<svg class="icon" xmlns="http://www.w3.org/2000/svg" width="8" height="14" viewBox="0 0 8 14">
  <path d="M7.22934021,0.00288659794 L5.43026804,0 C3.40907216,0 2.1028866,1.34010309 2.1028866,3.41426804 L2.1028866,4.98847423 L0.294,4.98847423 C0.137690722,4.98847423 0.0111134021,5.11519588 0.0111134021,5.27150515 L0.0111134021,7.55235052 C0.0111134021,7.70865979 0.137835052,7.83523711 0.294,7.83523711 L2.1028866,7.83523711 L2.1028866,13.5905361 C2.1028866,13.7468454 2.22946392,13.8734227 2.3857732,13.8734227 L4.74585567,13.8734227 C4.90216495,13.8734227 5.02874227,13.746701 5.02874227,13.5905361 L5.02874227,7.83523711 L7.14375258,7.83523711 C7.30006186,7.83523711 7.42663918,7.70865979 7.42663918,7.55235052 L7.42750515,5.27150515 C7.42750515,5.19645361 7.39762887,5.12457732 7.34465979,5.07146392 C7.29169072,5.01835052 7.21952577,4.98847423 7.14447423,4.98847423 L5.02874227,4.98847423 L5.02874227,3.654 C5.02874227,3.01259794 5.18158763,2.68698969 6.0171134,2.68698969 L7.22905155,2.6865567 C7.38521649,2.6865567 7.51179381,2.55983505 7.51179381,2.4036701 L7.51179381,0.285773196 C7.51179381,0.129752577 7.38536082,0.00317525773 7.22934021,0.00288659794 L7.22934021,0.00288659794 Z"/>
</svg>
