<svg class="icon" xmlns="http://www.w3.org/2000/svg" width="17" height="14" viewBox="0 0 17 14">
  <path d="M2.107,-3.31027676e-16 C1.84088748,-0.000419596421 1.59409876,0.138921111 1.457,0.367 L0.324,2.258 C0.253275452,2.37579047 0.21594136,2.51060803 0.216,2.648 L0.216,13.243 C0.216,13.661 0.555,14 0.973,14 L16.108,14 C16.5260796,14 16.865,13.6610796 16.865,13.243 L16.865,2.65 C16.865,2.44923112 16.7852449,2.25668521 16.6432798,2.11472017 C16.5013148,1.97275513 16.3087689,1.893 16.108,1.893 L8.969,1.893 L8.053,0.367 C7.91608466,0.139226987 7.66975618,-6.81623977e-05 7.404,-3.31027676e-16 L2.107,-3.31027676e-16 Z M2.535,1.514 L6.976,1.514 L7.89,3.038 C8.02709876,3.26607889 8.27388748,3.4054196 8.54,3.405 L15.35,3.405 L15.35,12.486 L1.73,12.486 L1.73,2.858 L2.536,1.514 L2.535,1.514 Z"/>
</svg>
