<svg class="icon" xmlns="http://www.w3.org/2000/svg" width="14" height="14" viewBox="0 0 14 14">
  <g>
    <path d="M8.04029412,8.89705882 C7.89202941,8.69817647 7.72829412,8.51338235 7.54911765,8.34288235 C7.36997059,8.17217647 7.19079412,8.01676471 7.01173529,7.87685294 C6.83255882,7.73694118 6.66882353,7.60247059 6.5205,7.47364706 C6.37220588,7.345 6.25182353,7.21055882 6.15947059,7.07064706 C6.06711765,6.93073529 6.02091176,6.788 6.02091176,6.64247059 C6.02091176,6.44085294 6.08532353,6.25194118 6.21405882,6.07558824 C6.34279412,5.89923529 6.49955882,5.72855882 6.68423529,5.56332353 C6.86894118,5.39811765 7.05361765,5.21764706 7.23847059,5.02170588 C7.42305882,4.82567647 7.57976471,4.56685294 7.70861765,4.24488235 C7.83723529,3.923 7.90164706,3.55494118 7.90164706,3.14070588 C7.90164706,2.64805882 7.79244118,2.17497059 7.57411765,1.72158824 C7.35579412,1.26811765 7.04794118,0.915352941 6.65044118,0.663470588 L7.78397059,0.663470588 L8.91758824,5.88235294e-05 L5.24817647,5.88235294e-05 C4.72761765,5.88235294e-05 4.20411765,0.0561176471 3.67805882,0.168294118 C2.90002941,0.341823529 2.24502941,0.737941176 1.71317647,1.35644118 C1.18141176,1.97505882 0.915470588,2.67623529 0.915470588,3.45997059 C0.915470588,4.28852941 1.21364706,4.97711765 1.80976471,5.52564706 C2.40591176,6.07414706 3.12108824,6.34852941 3.95520588,6.34852941 C4.12314706,6.34852941 4.31905882,6.33447059 4.543,6.30655882 C4.53179412,6.35129412 4.51232353,6.41147059 4.48426471,6.48702941 C4.45620588,6.56258824 4.43382353,6.62291176 4.41702941,6.66761765 C4.40026471,6.71235294 4.38623529,6.76688235 4.37511765,6.83132353 C4.36388235,6.89573529 4.35832353,6.96155882 4.35832353,7.02867647 C4.35832353,7.39817647 4.53732353,7.81526471 4.89570588,8.27988235 C4.47026471,8.29126471 4.0505,8.329 3.63614706,8.39341176 C3.22191176,8.45782353 2.78811765,8.55858824 2.33461765,8.69576471 C1.88117647,8.83285294 1.47529412,9.03164706 1.11708824,9.29194118 C0.758794118,9.55235294 0.490117647,9.86152941 0.310970588,10.2198529 C0.103823529,10.6341471 0.000205882355,11.0119706 0.000205882355,11.3535 C0.000205882355,11.7285294 0.0842352941,12.0686176 0.252117647,12.3737941 C0.42,12.6787647 0.6355,12.9279706 0.898647059,13.1210294 C1.16173529,13.3142647 1.4655,13.4764118 1.80976471,13.6081471 C2.154,13.7396176 2.4955,13.8334118 2.83414706,13.8893824 C3.17285294,13.9453529 3.50732353,13.9733235 3.83764706,13.9733235 C5.33785294,13.9733235 6.51355882,13.6067353 7.36441176,12.8734118 C8.14817647,12.1903824 8.54002941,11.401 8.54002941,10.5052647 C8.54002941,10.186 8.49385294,9.88808824 8.40144118,9.61088235 C8.30905882,9.3335 8.18876471,9.09576471 8.04029412,8.89705882 L8.04029412,8.89705882 Z M4.80323529,5.84470588 C4.51773529,5.84470588 4.24626471,5.77191176 3.98870588,5.62629412 C3.73114706,5.48070588 3.51282353,5.29176471 3.33370588,5.05944118 C3.15464706,4.82714706 2.99788235,4.56544118 2.8635,4.27429412 C2.72917647,3.98323529 2.62985294,3.69217647 2.56541176,3.401 C2.501,3.10997059 2.46882353,2.83282353 2.46882353,2.56967647 C2.46882353,2.03229412 2.61158824,1.57044118 2.89711765,1.18414706 C3.18255882,0.797852941 3.58567647,0.604705882 4.10629412,0.604705882 C4.47579412,0.604705882 4.81026471,0.719382353 5.10976471,0.948941176 C5.40926471,1.17847059 5.64438235,1.46955882 5.81517647,1.82223529 C5.98582353,2.17491176 6.11744118,2.54008824 6.20979412,2.91802941 C6.30214706,3.29588235 6.34835294,3.65282353 6.34835294,3.98870588 C6.34835294,4.54858824 6.22661765,4.99802941 5.98308824,5.33673529 C5.7395,5.67535294 5.34629412,5.84470588 4.80323529,5.84470588 Z M7.125,12.1505882 C6.97117647,12.4137941 6.76267647,12.6194118 6.4995,12.7676765 C6.23638235,12.9161471 5.95511765,13.0252647 5.65558824,13.0953235 C5.35608824,13.1654706 5.04120588,13.2003824 4.71088235,13.2003824 C4.35258824,13.2003824 3.99705882,13.1582941 3.64447059,13.0743824 C3.29182353,12.9905294 2.9545,12.863 2.63261765,12.6922941 C2.31073529,12.5217059 2.05041176,12.2864706 1.85170588,11.9869412 C1.65297059,11.6874118 1.55361765,11.3474118 1.55361765,10.9666471 C1.55361765,10.6307941 1.62914706,10.3313235 1.78032353,10.0681176 C1.93155882,9.80502941 2.12470588,9.59505882 2.35979412,9.43847059 C2.59491176,9.28164706 2.86917647,9.15279412 3.18270588,9.05226471 C3.49623529,8.95129412 3.7985,8.88144118 4.08955882,8.84229412 C4.38058824,8.80302941 4.67735294,8.78361765 4.97961765,8.78361765 C5.16441176,8.78361765 5.30441176,8.78923529 5.39952941,8.80029412 C5.43314706,8.82285294 5.51844118,8.88144118 5.65564706,8.97664706 C5.79285294,9.07185294 5.88517647,9.13629412 5.93279412,9.16988235 C5.98029412,9.20332353 6.06711765,9.26770588 6.19308824,9.36291176 C6.319,9.45811765 6.40858824,9.52941176 6.46176471,9.577 C6.51479412,9.62458824 6.59179412,9.69597059 6.69261765,9.79108824 C6.79332353,9.88629412 6.86755882,9.96882353 6.91514706,10.0387941 C6.96264706,10.1087353 7.0215,10.1940882 7.0915,10.2947353 C7.1615,10.3957059 7.21041176,10.4922353 7.2385,10.5845882 C7.26638235,10.677 7.29302941,10.7777353 7.31811765,10.8868529 C7.34326471,10.9962647 7.35585294,11.1094706 7.35585294,11.2271471 C7.356,11.5797059 7.279,11.8876176 7.125,12.1505882 L7.125,12.1505882 Z"/>
    <polygon points="11.824 2.15 11.824 0 10.749 0 10.749 2.15 8.599 2.15 8.599 3.225 10.749 3.225 10.749 5.374 11.824 5.374 11.824 3.225 13.973 3.225 13.973 2.15"/>
  </g>
</svg>
