<svg xmlns="http://www.w3.org/2000/svg" style="display: none;"><symbol id="icon-facebook" viewBox="0 0 8 14"><title>facebook</title><g class="nc-icon-wrapper" ><path  d="M7.23.003L5.43 0C3.41 0 2.103 1.34 2.103 3.414v1.574H.294a.283.283 0 0 0-.283.284v2.28c0 .157.127.283.283.283h1.809v5.756c0 .156.126.282.283.282h2.36a.283.283 0 0 0 .283-.282V7.835h2.115a.283.283 0 0 0 .283-.283v-2.28a.283.283 0 0 0-.283-.284H5.03V3.654c0-.641.153-.967.988-.967H7.23a.283.283 0 0 0 .283-.283V.286a.283.283 0 0 0-.283-.283z"/></g></symbol><symbol id="icon-bulb" viewBox="0 0 10 14"><title>bulb</title><g class="nc-icon-wrapper" ><g ><path d="M8.488 1.663C7.613.613 6.213 0 4.813 0s-2.8.613-3.675 1.663c-.875.962-1.225 2.274-1.05 3.5.175 1.312.7 2.274 1.837 3.237.437.35.613.7.787 1.05 0 .088.088.175.088.263-.087.087-.175.175-.175.35 0 .262.175.437.438.437-.263 0-.438.175-.438.438 0 .262.175.437.438.437-.263 0-.438.175-.438.438 0 .262.175.437.438.437-.263 0-.438.175-.438.438 0 .262.175.437.438.437H3.5c0 .438.612.875 1.313.875.7 0 1.312-.438 1.312-.875h.438c.262 0 .437-.175.437-.438 0-.262-.175-.437-.438-.437.263 0 .438-.175.438-.438 0-.262-.175-.437-.438-.437.263 0 .438-.175.438-.438 0-.262-.175-.437-.438-.437.263 0 .438-.175.438-.438 0-.175-.088-.262-.175-.35 0-.087.087-.087.087-.175.176-.35.35-.7.788-1.05 1.138-.962 1.663-1.925 1.837-3.325.175-1.224-.175-2.45-1.05-3.5zm.262 3.412C8.575 6.213 8.137 7 7.175 7.875c-.525.438-.787.875-1.05 1.225-.175.438-.263.525-.438.525h-1.75c-.174 0-.262-.088-.437-.525-.175-.35-.438-.875-.962-1.4C1.4 6.737 1.138 5.95.963 5.075c-.175-.963.174-2.013.787-2.8.788-.875 1.925-1.4 3.063-1.4 1.137 0 2.275.525 3.062 1.4.613.788.963 1.837.875 2.8z"/><path d="M7.875 4.375H7c0-.612-.7-1.75-1.75-1.75V1.75c1.575 0 2.625 1.575 2.625 2.625z"/></g></g></symbol><symbol id="icon-google-plus" viewBox="0 0 14 14"><title>google plus</title><g class="nc-icon-wrapper" ><g ><path d="M8.04 8.897a4.364 4.364 0 0 0-.49-.554 7.269 7.269 0 0 0-.538-.466 12.22 12.22 0 0 1-.491-.403 1.99 1.99 0 0 1-.362-.403.77.77 0 0 1-.138-.429c0-.201.064-.39.193-.566.129-.177.286-.347.47-.513a9.15 9.15 0 0 0 .554-.541c.185-.196.342-.455.47-.777.13-.322.194-.69.194-1.104 0-.493-.11-.966-.328-1.42A2.507 2.507 0 0 0 6.65.664h1.134L8.918 0h-3.67c-.52 0-1.044.056-1.57.168a3.554 3.554 0 0 0-1.965 1.188c-.532.62-.798 1.32-.798 2.104 0 .829.299 1.517.895 2.066.596.548 1.311.823 2.145.823.168 0 .364-.015.588-.042-.011.044-.03.104-.059.18l-.067.18a1.147 1.147 0 0 0-.059.361c0 .37.18.787.538 1.252-.426.011-.845.049-1.26.113a9.603 9.603 0 0 0-1.301.303c-.454.137-.86.336-1.218.596a2.56 2.56 0 0 0-.806.928c-.207.414-.31.792-.31 1.133 0 .376.083.716.251 1.02.168.306.383.555.647.748.263.193.567.355.91.487.345.132.686.225 1.025.281.339.056.673.084 1.004.084 1.5 0 2.676-.366 3.526-1.1.784-.683 1.176-1.472 1.176-2.368 0-.319-.046-.617-.139-.894a2.505 2.505 0 0 0-.36-.714zM4.803 5.845a1.63 1.63 0 0 1-.814-.219 2.161 2.161 0 0 1-.655-.567 4.083 4.083 0 0 1-.47-.785 4.3 4.3 0 0 1-.299-.873 3.85 3.85 0 0 1-.096-.831c0-.538.143-1 .428-1.386.286-.386.689-.58 1.21-.58.369 0 .703.115 1.003.345.3.23.534.52.705.873.17.353.302.718.395 1.096.092.378.138.735.138 1.07 0 .56-.121 1.01-.365 1.349-.244.338-.637.508-1.18.508zm2.322 6.306a1.652 1.652 0 0 1-.625.617 3.183 3.183 0 0 1-.844.327c-.3.07-.615.105-.945.105-.358 0-.714-.042-1.067-.126a4.25 4.25 0 0 1-1.011-.382 2.104 2.104 0 0 1-.781-.705c-.199-.3-.298-.64-.298-1.02 0-.336.075-.636.226-.899.152-.263.345-.473.58-.63a3.28 3.28 0 0 1 .823-.386c.313-.1.616-.17.907-.21.29-.039.587-.058.89-.058.184 0 .324.005.42.016a26.884 26.884 0 0 1 .793.563c.126.095.216.166.269.214.053.048.13.119.23.214.101.095.176.178.223.248l.176.256c.07.1.12.197.147.29.028.092.055.193.08.302.025.11.038.222.038.34 0 .353-.077.66-.231.924z"/><path d="M11.824 2.15V0h-1.075v2.15h-2.15v1.075h2.15v2.149h1.075V3.225h2.149V2.15z"/></g></g></symbol><symbol id="icon-html-5" viewBox="0 0 14 14"><title>html 5</title><g class="nc-icon-wrapper"><path fill="#53D0E1" d="M.856 0l1.122 12.585 5.035 1.398 5.048-1.4L13.185 0H.855zm9.887 4.116H4.837l.14 1.58h5.626l-.424 4.739-3.159.876-.003.001h-.004l-3.162-.877-.216-2.424h1.55l.11 1.232 1.718.463h.004l1.72-.465.178-2.001H3.566L3.15 2.573h7.731l-.138 1.543z"/></g></symbol><symbol id="icon-folder" viewBox="0 0 17 14"><g class="nc-icon-wrapper" ><title>folder icon</title><path  d="M2.107 0a.757.757 0 0 0-.65.367L.324 2.258a.757.757 0 0 0-.108.39v10.595c0 .418.339.757.757.757h15.135a.757.757 0 0 0 .757-.757V2.65a.757.757 0 0 0-.757-.757H8.969L8.053.367A.757.757 0 0 0 7.404 0H2.107zm.428 1.514h4.441l.914 1.524a.757.757 0 0 0 .65.367h6.81v9.081H1.73V2.858l.806-1.344z" class="nc-icon-wrapper"/></g></symbol><symbol id="icon-built" viewBox="0 0 18 14"><g class="nc-icon-wrapper"><title>built icon</title><path fill="#53D0E1" d="M5.457 7v4.308H3.303V7h2.154zm3.23-4.308v8.616H6.535V2.692h2.154zM.612.538A.537.537 0 0 1 1.149 0h16.154c.298 0 .539.241.539.538v12.385h-1.077V1.077H1.149A.538.538 0 0 1 .611.538zm17.23 12.295v.629a.538.538 0 0 1-.538.538H1.15a.538.538 0 0 1-.538-.538V.538A.537.537 0 0 1 1.149 0h.539v12.833h16.154zM11.92 4.846v6.462H9.765V4.846h2.154zm3.23-3.23v9.692h-2.153V1.615h2.153z" class="nc-icon-wrapper"/></g></symbol><symbol id="icon-left-arrow" viewBox="0 0 8 14"><title>left arrow</title><g class="nc-icon-wrapper" ><path d="M6.653 13.797A.48.48 0 0 0 7 13.94a.491.491 0 0 0 .347-.838L1.244 7 7.347.897a.491.491 0 0 0-.694-.694L.191 6.653a.491.491 0 0 0 0 .694l6.462 6.45z"/></g></symbol><symbol id="icon-left-quote" viewBox="0 0 17 14"><g class="nc-icon-wrapper" ><title>left quote icon</title><path  d="M5.903 6.367H3.68a.918.918 0 0 1-.674-.278.919.919 0 0 1-.278-.675v-.317c0-.7.248-1.3.744-1.795a2.447 2.447 0 0 1 1.795-.744h.635a.61.61 0 0 0 .446-.188.61.61 0 0 0 .189-.447V.653a.61.61 0 0 0-.189-.446.61.61 0 0 0-.446-.188h-.635A4.95 4.95 0 0 0 3.3.42a5.118 5.118 0 0 0-1.621 1.086A5.114 5.114 0 0 0 .592 3.128a4.946 4.946 0 0 0-.402 1.97v6.981c0 .53.185.98.555 1.35.37.37.82.555 1.35.555h3.808c.53 0 .979-.185 1.349-.555.37-.37.555-.82.555-1.35V8.271c0-.53-.185-.978-.555-1.349-.37-.37-.82-.555-1.35-.555zm10.236.555c-.37-.37-.82-.555-1.349-.555h-2.222a.918.918 0 0 1-.674-.278.918.918 0 0 1-.278-.675v-.317c0-.7.248-1.3.744-1.795a2.446 2.446 0 0 1 1.796-.744h.634a.61.61 0 0 0 .446-.188.61.61 0 0 0 .19-.447V.653a.61.61 0 0 0-.19-.446.61.61 0 0 0-.446-.188h-.634a4.95 4.95 0 0 0-1.97.402 5.118 5.118 0 0 0-1.621 1.086 5.112 5.112 0 0 0-1.086 1.621 4.948 4.948 0 0 0-.402 1.97v6.981c0 .53.185.98.555 1.35.37.37.82.555 1.35.555h3.808c.529 0 .979-.185 1.349-.555.37-.37.555-.82.555-1.35V8.271c0-.53-.185-.978-.555-1.349z" class="nc-icon-wrapper"/></g></symbol><symbol id="icon-linkedin" viewBox="0 0 15 14"><g class="nc-icon-wrapper" ><title>linkedin icon</title><path  d="M14.77 8.582v5.403h-3.133V8.943c0-1.266-.453-2.13-1.587-2.13-.866 0-1.38.582-1.607 1.146-.083.201-.104.481-.104.763v5.263H5.205s.042-8.539 0-9.423h3.133v1.335l-.02.03h.02v-.03c.417-.64 1.16-1.557 2.824-1.557 2.062 0 3.608 1.347 3.608 4.242zM1.927.019C.855.019.154.722.154 1.647c0 .904.68 1.629 1.732 1.629h.02C3 3.276 3.68 2.55 3.68 1.646 3.659.723 2.999.02 1.927.02zM.34 13.985h3.133V4.562H.34v9.423z" class="nc-icon-wrapper"/></g></symbol><symbol id="icon-menu" viewBox="0 0 17 14"><g class="nc-icon-wrapper" ><title>menu icon</title><path  d="M14.945 0h-12.5c-.825 0-1.5.675-1.5 1.5S1.62 3 2.445 3h12.5c.825 0 1.5-.675 1.5-1.5S15.77 0 14.945 0zm0 5.5h-12.5c-.825 0-1.5.675-1.5 1.5s.675 1.5 1.5 1.5h12.5c.825 0 1.5-.675 1.5-1.5s-.675-1.5-1.5-1.5zm0 5.5h-12.5c-.825 0-1.5.675-1.5 1.5s.675 1.5 1.5 1.5h12.5c.825 0 1.5-.675 1.5-1.5s-.675-1.5-1.5-1.5z" class="nc-icon-wrapper"/></g></symbol><symbol id="icon-phone" viewBox="0 0 14 14"><title>phone</title><g class="nc-icon-wrapper"><path fill="#53D0E1" d="M13.69 11.067l-2.163-2.163c-.431-.43-1.144-.416-1.59.03l-1.09 1.089-.215-.12c-.688-.38-1.63-.903-2.62-1.895-.994-.994-1.517-1.937-1.9-2.625-.04-.073-.079-.144-.117-.21l.732-.73.359-.36c.446-.447.459-1.16.029-1.59L2.952.33c-.43-.43-1.143-.417-1.59.03L.754.973.77.989c-.205.26-.375.562-.502.886-.118.309-.19.603-.224.898C-.24 5.141.84 7.304 3.776 10.24c4.058 4.058 7.329 3.752 7.47 3.737.307-.037.602-.11.9-.227.322-.125.623-.296.884-.5l.013.012.617-.605c.446-.446.459-1.16.03-1.59z"/></g></symbol><symbol id="icon-plus-sign" viewBox="0 0 15 14"><g class="nc-icon-wrapper" ><title>plus sign icon</title><path  d="M7.44 0a6.995 6.995 0 1 0 0 13.99A6.995 6.995 0 0 0 7.44 0zm4.147 8.031h-3.11v3.111H6.403v-3.11h-3.11V5.958h3.11v-3.11h2.073v3.11h3.111v2.073z" class="nc-icon-wrapper"/></g></symbol><symbol id="icon-print" viewBox="0 0 16 14"><g class="nc-icon-wrapper"><title>print icon</title><path fill="#53D0E1" d="M3.945 12.833h8.167V10.5H3.945v2.333zm0-5.833h8.167V3.5h-1.459a.875.875 0 0 1-.875-.875V1.167H3.945V7zm10.5.583A.587.587 0 0 0 13.862 7a.587.587 0 0 0-.584.583c0 .32.265.584.584.584a.588.588 0 0 0 .583-.584zm1.167 0v3.792a.3.3 0 0 1-.292.292h-2.042v1.458a.875.875 0 0 1-.875.875h-8.75a.875.875 0 0 1-.875-.875v-1.458H.737a.3.3 0 0 1-.292-.292V7.583c0-.957.793-1.75 1.75-1.75h.583V.875c0-.483.392-.875.875-.875h6.125c.483 0 1.149.274 1.495.62l1.385 1.385c.347.346.62 1.011.62 1.494v2.334h.583c.957 0 1.75.792 1.75 1.75z" class="nc-icon-wrapper"/></g></symbol><symbol id="icon-right-quote" viewBox="0 0 18 14"><g class="nc-icon-wrapper" ><title>right quote icon</title><path  d="M6.439.019H2.63c-.529 0-.978.185-1.349.555-.37.37-.555.82-.555 1.35v3.808c0 .529.185.978.555 1.349.37.37.82.555 1.35.555h2.221c.264 0 .49.093.674.278.186.185.278.41.278.674v.318c0 .7-.248 1.299-.744 1.795a2.447 2.447 0 0 1-1.795.743H2.63a.61.61 0 0 0-.446.189.61.61 0 0 0-.189.446v1.27c0 .172.063.32.189.446a.61.61 0 0 0 .446.189h.635c.688 0 1.344-.134 1.969-.402a5.116 5.116 0 0 0 1.622-1.086 5.118 5.118 0 0 0 1.086-1.622 4.947 4.947 0 0 0 .401-1.968V1.923c0-.529-.185-.978-.555-1.349-.37-.37-.82-.555-1.349-.555zm10.236.555c-.37-.37-.82-.555-1.35-.555h-3.808c-.529 0-.979.185-1.349.555-.37.37-.555.82-.555 1.35v3.808c0 .529.185.978.555 1.349.37.37.82.555 1.35.555h2.22a.92.92 0 0 1 .675.278c.185.185.278.41.278.674v.318c0 .7-.248 1.299-.744 1.795a2.446 2.446 0 0 1-1.795.743h-.635a.61.61 0 0 0-.446.189.61.61 0 0 0-.189.446v1.27c0 .172.063.32.189.446a.61.61 0 0 0 .446.189h.635c.688 0 1.344-.134 1.969-.402a5.117 5.117 0 0 0 1.621-1.086 5.115 5.115 0 0 0 1.086-1.622 4.947 4.947 0 0 0 .402-1.968V1.923c0-.529-.185-.978-.555-1.349z" class="nc-icon-wrapper"/></g></symbol><symbol id="icon-setting" viewBox="0 0 15 14"><g class="nc-icon-wrapper" ><title>setting icon</title><path  d="M13.015 5.231l-.243-.575c.832-1.88.777-1.937.615-2.1l-1.063-1.038-.105-.089h-.123c-.065 0-.259 0-1.874.733l-.595-.24C8.86.017 8.78.017 8.555.017h-1.5c-.224 0-.311 0-1.024 1.912l-.592.24c-1.092-.46-1.732-.694-1.905-.694l-.141.004L2.25 2.6c-.174.163-.234.22.645 2.072l-.242.574C.707 5.998.707 6.07.707 6.3v1.47c0 .23 0 .312 1.953 1.011l.242.573c-.832 1.88-.776 1.936-.615 2.098l1.063 1.039.106.09h.123c.064 0 .256 0 1.873-.733l.594.241c.769 1.905.847 1.904 1.073 1.904h1.5c.229 0 .31 0 1.025-1.91l.595-.241c1.09.46 1.729.695 1.9.695l.143-.004 1.152-1.128c.164-.165.221-.222-.653-2.066l.24-.574c1.949-.753 1.949-.832 1.949-1.057V6.24c0-.23 0-.312-1.955-1.009zm-5.177 4.22c-1.375 0-2.494-1.098-2.494-2.446S6.464 4.56 7.838 4.56s2.491 1.097 2.491 2.445c0 1.348-1.117 2.446-2.49 2.446z" class="nc-icon-wrapper"/></g></symbol><symbol id="icon-right-arrow" viewBox="0 0 8 14"><title>right arrow</title><g class="nc-icon-wrapper" ><path d="M.885 13.797a.48.48 0 0 1-.347.143.491.491 0 0 1-.347-.838L6.294 7 .191.897A.491.491 0 0 1 .885.203l6.45 6.45a.491.491 0 0 1 0 .694l-6.45 6.45z"/></g></symbol><symbol id="icon-tablet" viewBox="0 0 12 14"><title>tablet</title><g class="nc-icon-wrapper" ><path  d="M9.967 0H1.262C.575 0 .018.557.018 1.244v11.503c0 .687.557 1.244 1.244 1.244h8.705c.687 0 1.244-.557 1.244-1.244V1.244C11.21.557 10.654 0 9.967 0zM5.615 13.308a.534.534 0 1 1 0-1.069.534.534 0 0 1 0 1.069zm4.508-1.877c0 .15-.122.271-.272.271H1.378a.271.271 0 0 1-.271-.271V1.332c0-.15.121-.27.27-.27h8.474c.15 0 .272.12.272.27v10.099z"/></g></symbol><symbol id="icon-twitter" viewBox="0 0 18 14"><g class="nc-icon-wrapper" ><title>twitter icon</title><path  d="M17.205 1.666a7.1 7.1 0 0 1-2.027.556A3.544 3.544 0 0 0 16.73.27a7.115 7.115 0 0 1-2.243.857 3.53 3.53 0 0 0-6.014 3.218A10.02 10.02 0 0 1 1.199.657 3.503 3.503 0 0 0 .72 2.431a3.53 3.53 0 0 0 1.57 2.938 3.53 3.53 0 0 1-1.599-.443v.044a3.533 3.533 0 0 0 2.831 3.46c-.296.08-.607.124-.93.124-.228 0-.448-.023-.664-.066a3.531 3.531 0 0 0 3.296 2.452 7.081 7.081 0 0 1-4.383 1.508A7.5 7.5 0 0 1 0 12.4a9.976 9.976 0 0 0 5.41 1.588c6.492 0 10.041-5.378 10.041-10.042l-.011-.457a7.048 7.048 0 0 0 1.765-1.823z" class="nc-icon-wrapper"/></g></symbol><symbol id="icon-user" viewBox="0 0 15 14"><g class="nc-icon-wrapper"><title>user icon</title><g fill="#53D0E1" class="nc-icon-wrapper"><path d="M.593 13.959h13.61a.617.617 0 0 0 .464-.204.502.502 0 0 0 .124-.4 7.487 7.487 0 0 0-3.94-5.663 4.87 4.87 0 0 1-3.453 1.432 4.87 4.87 0 0 1-3.453-1.432 7.485 7.485 0 0 0-3.94 5.663.502.502 0 0 0 .123.4c.114.13.283.204.465.204z"/><path d="M4.331 7.154a4.214 4.214 0 0 0 6.133 0 4.216 4.216 0 0 0 1.17-2.915A4.24 4.24 0 0 0 7.398.003 4.242 4.242 0 0 0 3.16 4.239a4.216 4.216 0 0 0 1.17 2.915z"/></g></g></symbol><symbol id="icon-skype" viewBox="0 0 14 14"><title>skype</title><g class="nc-icon-wrapper" ><path  d="M13.388 7.997A6.482 6.482 0 0 0 5.974.583a3.917 3.917 0 0 0-5.39 5.391 6.481 6.481 0 0 0 7.414 7.414 3.917 3.917 0 0 0 5.39-5.391zm-3.325 1.937c-.274.394-.677.703-1.203.925-.528.222-1.151.333-1.87.333-.864 0-1.578-.151-2.142-.456a2.774 2.774 0 0 1-.975-.877c-.25-.365-.377-.723-.377-1.072 0-.206.078-.385.231-.53a.823.823 0 0 1 .588-.222c.193 0 .358.058.492.173.134.115.246.282.337.502.11.255.23.468.356.638.126.168.304.308.533.418.228.11.53.165.909.165.517 0 .936-.112 1.256-.333.322-.223.477-.495.477-.822a.824.824 0 0 0-.254-.632 1.694 1.694 0 0 0-.672-.376c-.278-.088-.65-.181-1.118-.28a8.75 8.75 0 0 1-1.576-.479 2.558 2.558 0 0 1-1.015-.752c-.252-.32-.377-.718-.377-1.19 0-.449.132-.85.397-1.2.265-.352.649-.62 1.149-.807.498-.187 1.084-.28 1.756-.28.537 0 1.002.061 1.396.185.392.125.719.29.98.495.26.206.451.423.572.651.121.229.182.452.182.67a.778.778 0 0 1-.231.547.765.765 0 0 1-.577.243c-.206 0-.368-.048-.48-.148a1.905 1.905 0 0 1-.348-.469 2.08 2.08 0 0 0-.562-.704C7.684 4.086 7.333 4 6.846 4c-.452 0-.813.093-1.086.274-.274.183-.405.396-.406.645a.62.62 0 0 0 .136.4c.092.114.22.212.383.295.164.084.331.15.499.197.17.048.451.117.843.21.49.105.936.223 1.336.352.4.13.74.286 1.022.472.283.185.505.422.663.707.16.286.24.636.24 1.047 0 .495-.138.94-.413 1.335z"/></g></symbol><symbol id="icon-youtube" viewBox="0 0 12 14"><title>youtube</title><g class="nc-icon-wrapper" ><g ><path d="M11.488 7.352a1.433 1.433 0 0 0-1.227-1.114c-1.406-.158-2.83-.158-4.247-.158-1.418 0-2.842 0-4.249.158A1.433 1.433 0 0 0 .539 7.352c-.197.86-.2 1.797-.2 2.682s0 1.823.198 2.682a1.433 1.433 0 0 0 1.226 1.114c1.406.158 2.83.158 4.248.158 1.418 0 2.842 0 4.249-.158a1.433 1.433 0 0 0 1.226-1.114c.197-.86.198-1.797.198-2.682s.002-1.823-.196-2.682zm-7.913.666h-.821v4.363h-.763V8.018h-.806v-.715h2.39v.715zm2.072 4.364H4.96v-.413c-.273.312-.532.465-.784.465-.22 0-.373-.09-.441-.282-.038-.114-.061-.295-.061-.562V8.598h.686v2.786c0 .16 0 .244.006.266.016.107.068.16.16.16.138 0 .281-.105.434-.32V8.598h.686v3.784zm2.604-1.136c0 .35-.023.602-.069.762-.092.282-.275.426-.548.426-.244 0-.479-.136-.708-.419v.367H6.24V7.303h.686v1.659c.221-.273.456-.41.708-.41.273 0 .457.143.548.426.046.153.07.403.07.761v1.507zm2.588-.631H9.468v.67c0 .35.114.525.35.525.169 0 .267-.091.306-.275.006-.037.015-.19.015-.464h.7v.1c0 .221-.009.373-.015.442a.977.977 0 0 1-.16.41c-.19.275-.471.41-.83.41-.358 0-.63-.128-.829-.387-.145-.19-.22-.487-.22-.89V9.832c0-.404.066-.7.212-.891.198-.26.47-.388.821-.388.344 0 .617.129.809.388.143.191.212.487.212.891v.784z"/><path d="M9.75 9.169c-.188 0-.282.175-.282.525v.35h.56v-.35c0-.35-.093-.525-.279-.525zm-2.563 0c-.086 0-.174.053-.261.167v2.306c.087.114.175.169.26.169.152 0 .229-.17.229-.511V9.685c0-.341-.077-.516-.228-.516zm.463-3.437c.253 0 .516-.154.792-.47v.417h.693V1.855h-.693v2.923c-.154.217-.3.324-.438.324-.093 0-.147-.055-.162-.162-.009-.023-.009-.107-.009-.27V1.856h-.69V4.88c0 .27.023.453.061.569.07.193.223.284.446.284zm-4.823-2.13v2.077h.768V3.601L4.52.548h-.777l-.524 2.015L2.673.548h-.809c.162.476.33.954.493 1.43.246.715.4 1.255.47 1.623zm2.722 2.13c.347 0 .617-.13.808-.392.146-.191.216-.493.216-.899V3.102c0-.409-.07-.708-.216-.9-.19-.262-.46-.393-.808-.393-.345 0-.615.13-.807.392-.147.193-.216.492-.216.901v1.339c0 .406.07.708.216.9.192.26.462.39.807.39zm-.33-2.769c0-.354.107-.53.33-.53.224 0 .33.176.33.53v1.609c0 .353-.106.53-.33.53-.223 0-.33-.177-.33-.53V2.963z"/></g></g></symbol><symbol id="icon-bullseye" viewBox="0 0 14 14"><title>bullseye</title><g class="nc-icon-wrapper"><g fill="#53D0E1"><circle cx="6.978" cy="6.976" r="1.443"/><path d="M6.977 0a6.976 6.976 0 1 0 0 13.953A6.977 6.977 0 0 0 6.978 0zm4.104 11.078a5.788 5.788 0 0 1-4.104 1.7 5.782 5.782 0 0 1-4.103-1.7 5.778 5.778 0 0 1-1.7-4.102 5.787 5.787 0 0 1 1.7-4.103 5.78 5.78 0 0 1 4.103-1.7c1.606 0 3.047.649 4.104 1.7a5.785 5.785 0 0 1 1.699 4.103 5.775 5.775 0 0 1-1.7 4.102z"/><path d="M6.977 2.404a4.443 4.443 0 1 0 .003 8.886 4.443 4.443 0 0 0-.003-8.886zM9.311 9.18c-.6.599-1.42.966-2.334.968a3.293 3.293 0 0 1-2.333-.968c-.6-.6-.966-1.419-.967-2.334 0-.913.367-1.734.967-2.334.6-.598 1.42-.967 2.333-.967.914 0 1.735.369 2.334.967.6.6.967 1.42.968 2.334 0 .915-.368 1.735-.968 2.334z"/></g></g></symbol><symbol id="icon-dribble" viewBox="0 0 15 14"><g class="nc-icon-wrapper" ><title>dribble icon</title><path  d="M7.953 0c-3.86 0-7 3.14-7 7s3.14 7 7 7 7-3.14 7-7-3.14-7-7-7zm5.415 6.436a9.6 9.6 0 0 0-4.048.204c-.14-.34-.298-.668-.46-.998a9.61 9.61 0 0 0 2.889-2.537 5.427 5.427 0 0 1 1.619 3.331zm-2.203-3.822a8.865 8.865 0 0 1-2.645 2.34A18.025 18.025 0 0 0 6.337 1.8a5.41 5.41 0 0 1 4.828.814zM5.578 2.11a17.3 17.3 0 0 1 2.25 3.202 8.862 8.862 0 0 1-5.225.699A5.453 5.453 0 0 1 5.578 2.11zM2.508 7c0-.078.01-.152.012-.229a9.749 9.749 0 0 0 1.574.147 9.629 9.629 0 0 0 4.074-.924c.141.29.284.579.408.877a9.63 9.63 0 0 0-4.745 3.676A5.42 5.42 0 0 1 2.509 7zm1.862 4.089a9.03 9.03 0 0 1 4.483-3.49 17.231 17.231 0 0 1 1.005 4.495 5.398 5.398 0 0 1-1.905.35A5.413 5.413 0 0 1 4.37 11.09zm6.233.662a18.05 18.05 0 0 0-1.006-4.38 8.868 8.868 0 0 1 3.789-.148 5.442 5.442 0 0 1-2.783 4.528z" class="nc-icon-wrapper"/></g></symbol><symbol id="icon-envelope" viewBox="0 0 18 14"><g class="nc-icon-wrapper"><title>envelope icon</title><g class="nc-icon-wrapper"><path d="M16.218 13.993c.4 0 .748-.132 1.042-.393l-5.045-5.046a93.06 93.06 0 0 0-.35.251 23.27 23.27 0 0 1-.919.651 5.664 5.664 0 0 1-.939.477c-.39.163-.755.244-1.093.244h-.02c-.338 0-.702-.081-1.093-.244a5.646 5.646 0 0 1-.94-.477 23.405 23.405 0 0 1-.918-.65 43.711 43.711 0 0 0-.349-.253L.548 13.6c.295.26.642.393 1.042.393h14.628zM1.004 5.377A5.269 5.269 0 0 1 0 4.512v7.677l4.447-4.447c-.89-.621-2.036-1.409-3.443-2.365zm15.81 0a292.736 292.736 0 0 0-3.45 2.366l4.445 4.446V4.512a5.484 5.484 0 0 1-.994.865z"/><path d="M16.218 0H1.59C1.08 0 .687.173.413.517.138.862 0 1.292 0 1.81c0 .417.182.87.547 1.357.364.487.752.87 1.162 1.147.226.16.905.632 2.038 1.416A658.53 658.53 0 0 1 6.35 7.543l.149.106.274.197c.215.156.394.282.536.378.143.096.315.204.517.323.202.12.393.209.572.268.179.06.344.09.497.09h.02c.152 0 .317-.03.496-.09.18-.06.37-.149.572-.268a11.291 11.291 0 0 0 1.053-.701 66.66 66.66 0 0 1 .423-.303l1.005-.699 3.646-2.53a4.727 4.727 0 0 0 1.212-1.223c.324-.477.487-.977.487-1.5 0-.438-.158-.812-.472-1.124A1.537 1.537 0 0 0 16.218 0z"/></g></g></symbol></svg>