<svg xmlns="http://www.w3.org/2000/svg" width="14" height="12" viewBox="0 0 17 14"><title>left quote icon</title><g class="nc-icon-wrapper" fill="#FFFFFF"><path fill="#FFFFFF" d="M5.903 6.367H3.68a.918.918 0 0 1-.674-.278.919.919 0 0 1-.278-.675v-.317c0-.7.248-1.3.744-1.795a2.447 2.447 0 0 1 1.795-.744h.635a.61.61 0 0 0 .446-.188.61.61 0 0 0 .189-.447V.653a.61.61 0 0 0-.189-.446.61.61 0 0 0-.446-.188h-.635C4.58.019 3.924.153 3.3.42a5.118 5.118 0 0 0-1.621 1.086A5.114 5.114 0 0 0 .592 3.128a4.946 4.946 0 0 0-.402 1.97v6.981c0 .53.185.98.555 1.35.37.37.82.555 1.35.555h3.808c.53 0 .979-.185 1.349-.555.37-.37.555-.82.555-1.35V8.271c0-.53-.185-.978-.555-1.349-.37-.37-.82-.555-1.35-.555zm10.236.555c-.37-.37-.82-.555-1.349-.555h-2.222a.918.918 0 0 1-.674-.278.918.918 0 0 1-.278-.675v-.317c0-.7.248-1.3.744-1.795a2.446 2.446 0 0 1 1.796-.744h.634a.61.61 0 0 0 .446-.188.61.61 0 0 0 .19-.447V.653a.61.61 0 0 0-.19-.446.61.61 0 0 0-.446-.188h-.634a4.95 4.95 0 0 0-1.97.402 5.118 5.118 0 0 0-1.621 1.086 5.112 5.112 0 0 0-1.086 1.621 4.948 4.948 0 0 0-.402 1.97v6.981c0 .53.185.98.555 1.35.37.37.82.555 1.35.555h3.808c.529 0 .979-.185 1.349-.555.37-.37.555-.82.555-1.35V8.271c0-.53-.185-.978-.555-1.349z"/></g></svg>