<svg class="icon" xmlns="http://www.w3.org/2000/svg" width="15" height="14" viewBox="0 0 15 14">
  <path d="M14.77,8.582 L14.77,13.985 L11.637,13.985 L11.637,8.943 C11.637,7.677 11.184,6.813 10.05,6.813 C9.184,6.813 8.67,7.395 8.443,7.959 C8.36,8.16 8.339,8.44 8.339,8.722 L8.339,13.985 L5.205,13.985 C5.205,13.985 5.247,5.446 5.205,4.562 L8.338,4.562 L8.338,5.897 L8.318,5.927 L8.338,5.927 L8.338,5.897 C8.755,5.257 9.498,4.34 11.162,4.34 C13.224,4.34 14.77,5.687 14.77,8.582 L14.77,8.582 Z M1.927,0.019 C0.855,0.019 0.154,0.722 0.154,1.647 C0.154,2.551 0.834,3.276 1.886,3.276 L1.906,3.276 C3,3.276 3.68,2.55 3.68,1.646 C3.659,0.723 2.999,0.02 1.927,0.02 L1.927,0.019 Z M0.34,13.985 L3.473,13.985 L3.473,4.562 L0.34,4.562 L0.34,13.985 Z"/>
</svg>
