<svg class="icon" xmlns="http://www.w3.org/2000/svg" width="16" height="14" viewBox="0 0 16 14">
  <path d="M3.945,12.833 L12.112,12.833 L12.112,10.5 L3.945,10.5 L3.945,12.833 Z M3.945,7 L12.112,7 L12.112,3.5 L10.653,3.5 C10.1697508,3.5 9.778,3.10824916 9.778,2.625 L9.778,1.167 L3.945,1.167 L3.945,7 Z M14.445,7.583 C14.4428195,7.26192554 14.1830745,7.00218055 13.862,7 C13.5405351,7.00163551 13.2801864,7.26153836 13.278,7.583 C13.278,7.903 13.543,8.167 13.862,8.167 C14.181,8.167 14.445,7.902 14.445,7.583 L14.445,7.583 Z M15.612,7.583 L15.612,11.375 C15.6078006,11.5344953 15.4794953,11.6628006 15.32,11.667 L13.278,11.667 L13.278,13.125 C13.278,13.6082492 12.8862492,14 12.403,14 L3.653,14 C3.16975084,14 2.778,13.6082492 2.778,13.125 L2.778,11.667 L0.737,11.667 C0.577504684,11.6628006 0.449199408,11.5344953 0.445,11.375 L0.445,7.583 C0.445,6.626 1.238,5.833 2.195,5.833 L2.778,5.833 L2.778,0.875 C2.778,0.392 3.17,0 3.653,0 L9.778,0 C10.261,0 10.927,0.274 11.273,0.62 L12.658,2.005 C13.005,2.351 13.278,3.016 13.278,3.499 L13.278,5.833 L13.861,5.833 C14.818,5.833 15.611,6.625 15.611,7.583 L15.612,7.583 Z"/>
</svg>
