<svg xmlns="http://www.w3.org/2000/svg" width="14" height="11" viewBox="0 0 18 14"><title>right quote icon</title><g class="nc-icon-wrapper" fill="#FFFFFF"><path fill="#FFFFFF" d="M6.439.019H2.63c-.529 0-.978.185-1.349.555-.37.37-.555.82-.555 1.35v3.808c0 .529.185.978.555 1.349.37.37.82.555 1.35.555h2.221c.264 0 .49.093.674.278.186.185.278.41.278.674v.318c0 .7-.248 1.299-.744 1.795a2.447 2.447 0 0 1-1.795.743H2.63a.61.61 0 0 0-.446.189.61.61 0 0 0-.189.446v1.27c0 .172.063.32.189.446a.61.61 0 0 0 .446.189h.635c.688 0 1.344-.134 1.969-.402a5.116 5.116 0 0 0 1.622-1.086 5.118 5.118 0 0 0 1.086-1.622 4.947 4.947 0 0 0 .401-1.968V1.923c0-.529-.185-.978-.555-1.349-.37-.37-.82-.555-1.349-.555zm10.236.555c-.37-.37-.82-.555-1.35-.555h-3.808c-.529 0-.979.185-1.349.555-.37.37-.555.82-.555 1.35v3.808c0 .529.185.978.555 1.349.37.37.82.555 1.35.555h2.22c.265 0 .49.093.675.278.185.185.278.41.278.674v.318c0 .7-.248 1.299-.744 1.795a2.446 2.446 0 0 1-1.795.743h-.635a.61.61 0 0 0-.446.189.61.61 0 0 0-.189.446v1.27c0 .172.063.32.189.446a.61.61 0 0 0 .446.189h.635c.688 0 1.344-.134 1.969-.402a5.117 5.117 0 0 0 1.621-1.086 5.115 5.115 0 0 0 1.086-1.622 4.947 4.947 0 0 0 .402-1.968V1.923c0-.529-.185-.978-.555-1.349z"/></g></svg>