<svg class="icon" xmlns="http://www.w3.org/2000/svg" width="15" height="14" viewBox="0 0 15 14">
  <path d="M13.015,5.231 L12.772,4.656 C13.604,2.776 13.549,2.719 13.387,2.556 L12.324,1.518 L12.219,1.429 L12.096,1.429 C12.031,1.429 11.837,1.429 10.222,2.162 L9.627,1.922 C8.86,0.017 8.78,0.017 8.555,0.017 L7.055,0.017 C6.831,0.017 6.744,0.017 6.031,1.929 L5.439,2.169 C4.347,1.709 3.707,1.475 3.534,1.475 L3.393,1.479 L2.25,2.6 C2.076,2.763 2.016,2.82 2.895,4.672 L2.653,5.246 C0.707,5.998 0.707,6.07 0.707,6.3 L0.707,7.77 C0.707,8 0.707,8.082 2.66,8.781 L2.902,9.354 C2.07,11.234 2.126,11.29 2.287,11.452 L3.35,12.491 L3.456,12.581 L3.579,12.581 C3.643,12.581 3.835,12.581 5.452,11.848 L6.046,12.089 C6.815,13.994 6.893,13.993 7.119,13.993 L8.619,13.993 C8.848,13.993 8.929,13.993 9.644,12.083 L10.239,11.842 C11.329,12.302 11.968,12.537 12.139,12.537 L12.282,12.533 L13.434,11.405 C13.598,11.24 13.655,11.183 12.781,9.339 L13.021,8.765 C14.97,8.012 14.97,7.933 14.97,7.708 L14.97,6.24 C14.97,6.01 14.97,5.928 13.015,5.231 Z M7.838,9.451 C6.463,9.451 5.344,8.353 5.344,7.005 C5.344,5.657 6.464,4.56 7.838,4.56 C9.212,4.56 10.329,5.657 10.329,7.005 C10.329,8.353 9.212,9.451 7.839,9.451 L7.838,9.451 Z"/>
</svg>
