<svg class="icon" xmlns="http://www.w3.org/2000/svg" width="14" height="14" viewBox="0 0 14 14">
  <path d="M13.3881578,7.99715081 C13.4402923,7.66729002 13.4677401,7.32982831 13.4677401,6.98538283 C13.4677401,3.40531323 10.5656798,0.503317865 6.98551276,0.503317865 C6.6419768,0.503317865 6.3035406,0.531610209 5.97397216,0.583160093 C5.37697448,0.213767981 4.67236195,0 3.91723898,0 C1.75393039,0 0.000162412993,1.7535406 0.000162412993,3.91707657 C0.000162412993,4.67203712 0.214060325,5.37606497 0.583290023,5.9742645 C0.532194896,6.30467749 0.504064965,6.64106729 0.504064965,6.98551276 C0.504064965,10.5658422 3.40606032,13.4669606 6.98538283,13.4669606 C7.32921114,13.4669606 7.66774478,13.4404548 7.99728074,13.3884501 C8.59489559,13.7571276 9.29892343,13.9714803 10.053884,13.9714803 C12.2177773,13.9714803 13.9713503,12.2174849 13.9713503,10.0540139 C13.9715128,9.29876102 13.7577448,8.59489559 13.3881578,7.99715081 L13.3881578,7.99715081 Z M10.0631415,9.93350348 C9.78892343,10.3282645 9.38610673,10.6367517 8.8597587,10.8585754 C8.33233875,11.0809838 7.7089652,11.191652 6.98908585,11.191652 C6.12628306,11.191652 5.41192575,11.0406729 4.84806032,10.7357912 C4.44836195,10.5174756 4.1232761,10.2246125 3.87335499,9.85941067 C3.62291415,9.49391647 3.49593968,9.13599072 3.49593968,8.78699768 C3.49593968,8.58112297 3.57445012,8.40207889 3.72728074,8.25610209 C3.88170302,8.10905336 4.08059397,8.03535035 4.31534571,8.03535035 C4.50764269,8.03535035 4.67281671,8.09326682 4.80729466,8.20802784 C4.94076566,8.32275638 5.05273318,8.48955452 5.14430162,8.70965661 C5.25406032,8.96464501 5.37327146,9.17779582 5.50011601,9.34787471 C5.62618097,9.51584223 5.80360093,9.65606961 6.03338283,9.76582831 C6.26063109,9.87587935 6.56307657,9.93090487 6.94153132,9.93090487 C7.45946636,9.93090487 7.87803712,9.81887239 8.19838051,9.59786079 C8.52034803,9.37483527 8.67499768,9.10347564 8.67499768,8.77559629 C8.67499768,8.51407889 8.59161485,8.30638515 8.42062645,8.1444594 C8.24807889,7.98042227 8.02524826,7.8554942 7.7487239,7.76834339 C7.47112761,7.68028306 7.09842227,7.58689559 6.63135499,7.4885058 C6.00418097,7.35162413 5.47965197,7.19229698 5.05487703,7.00932251 C4.62954988,6.82566589 4.29082135,6.57460789 4.03976334,6.25748028 C3.78818561,5.93723434 3.66273782,5.53919258 3.66273782,5.06774014 C3.66273782,4.61818097 3.79516937,4.21614385 4.06029234,3.8662413 C4.32528538,3.51536427 4.70867749,3.24679814 5.20858469,3.05973086 C5.70673782,2.87272854 6.29321114,2.77917865 6.96508121,2.77917865 C7.50237587,2.77917865 7.96713689,2.84135035 8.36053364,2.96504408 C8.75285847,3.08964733 9.07989327,3.25407425 9.34137819,3.46040371 C9.6012065,3.66627842 9.79239907,3.88342459 9.9134942,4.11129002 C10.0344919,4.33983759 10.0954292,4.563058 10.0954292,4.78088631 C10.0954292,4.98341531 10.0169188,5.16710441 9.86392575,5.32808817 C9.7109652,5.4892993 9.51529002,5.57148028 9.28677494,5.57073318 C9.0807703,5.57073318 8.91916937,5.52321114 8.80710441,5.42261253 C8.69796288,5.32529466 8.58333179,5.17035267 8.45934571,4.95440835 C8.30261717,4.65309977 8.11490023,4.41834803 7.89661717,4.25044548 C7.68408353,4.08566125 7.33343387,3.99987471 6.84551276,4.00091415 C6.39406961,4.00091415 6.03286311,4.09316473 5.76023666,4.27357309 C5.48592111,4.45687239 5.35478886,4.66953596 5.35417169,4.91870998 C5.35462645,5.07485383 5.3995174,5.2065058 5.48985151,5.31909049 C5.58158237,5.43271462 5.7092065,5.53116937 5.87324362,5.61416241 C6.03734571,5.69845476 6.20427378,5.76364733 6.37201392,5.8105522 C6.5417355,5.85865893 6.82332715,5.92820418 7.21474246,6.02029234 C7.70561949,6.12608817 8.15085847,6.24429234 8.55094664,6.37311833 C8.95025522,6.50259397 9.29103016,6.65873782 9.57255684,6.84476566 C9.85632483,7.0302413 10.078116,7.26671462 10.2364362,7.55233411 C10.3958933,7.83840835 10.4753132,8.18782367 10.4753132,8.5989884 C10.4759304,9.09408817 10.3380093,9.53935963 10.0631415,9.93350348 L10.0631415,9.93350348 Z"/>
</svg>
