<svg class="icon" xmlns="http://www.w3.org/2000/svg" width="12" height="14" viewBox="0 0 12 14">
  <path d="M9.96710381,0 L1.2622526,0 C0.575429066,0 0.0184567474,0.556778547 0.0184567474,1.24355363 L0.0184567474,12.7469758 C0.0184567474,13.4337509 0.575380623,13.9905294 1.2622526,13.9905294 L9.96707958,13.9905294 C10.6538062,13.9905294 11.2108028,13.4338235 11.2108028,12.7469758 L11.2108028,1.24350519 C11.2108028,0.556730104 10.6538062,0 9.96710381,0 Z M5.61462976,13.3075329 C5.32043599,13.3075329 5.08083737,13.0686851 5.08083737,12.7735225 C5.08083737,12.4788927 5.32043599,12.2395848 5.61462976,12.2395848 C5.90928374,12.2395848 6.14888235,12.4788927 6.14888235,12.7735225 C6.14890657,13.0686851 5.90928374,13.3075329 5.61462976,13.3075329 Z M10.1228235,11.430782 C10.1228235,11.5806401 10.0011592,11.7019896 9.85142215,11.7019896 L1.37788581,11.7019896 C1.22807612,11.7019896 1.10650865,11.5805917 1.10650865,11.430782 L1.10650865,1.33230104 C1.10650865,1.18246713 1.22807612,1.06111765 1.37788581,1.06111765 L9.85142215,1.06111765 C10.0011592,1.06111765 10.1228235,1.18246713 10.1228235,1.33230104 L10.1228235,11.430782 Z"/>
</svg>
