<svg class="icon" xmlns="http://www.w3.org/2000/svg" width="15" height="14" viewBox="0 0 15 14">
  <g>
    <path d="M0.633,13.959 L14.243,13.959 C14.4197472,13.960601 14.5886935,13.8863229 14.707,13.755 C14.80463,13.6460969 14.8499105,13.5000307 14.831,13.355 C14.5174031,10.93867 13.0475828,8.82608302 10.891,7.692 C9.97631944,8.60966402 8.7336646,9.12500769 7.438,9.124 C6.1423354,9.12500769 4.89968056,8.60966402 3.985,7.692 C1.82818692,8.82582227 0.358272296,10.9385447 0.045,13.355 C0.0258202523,13.499881 0.0707295341,13.6459274 0.168,13.755 C0.282,13.885 0.451,13.959 0.633,13.959 L0.633,13.959 Z"/>
    <path d="M4.371,7.154 C5.16722583,7.99873849 6.27665605,8.47760664 7.4375,8.47760664 C8.59834395,8.47760664 9.70777417,7.99873849 10.504,7.154 C11.2549128,6.3693096 11.6740303,5.32509807 11.674,4.239 C11.674,1.903 9.774,0.003 7.438,0.003 C5.09911103,0.00520312157 3.20330715,1.90011233 3.2,4.239 C3.19996973,5.32509807 3.61908723,6.3693096 4.37,7.154 L4.371,7.154 Z"/>
  </g>
</svg>
