<svg  class="icon" xmlns="http://www.w3.org/2000/svg" width="12" height="14" viewBox="0 0 12 14">
  <g>
    <path d="M11.4879314,7.35226048 C11.3490534,6.74887504 10.8554957,6.30378379 10.2614478,6.23753144 C8.85503063,6.08042298 7.43082755,6.0796819 6.0135906,6.08042298 C4.5957608,6.0796819 3.17185415,6.08042298 1.76499229,6.23753144 C1.17124086,6.303932 0.677979557,6.74902325 0.539249817,7.35226048 C0.341530293,8.21146594 0.339158844,9.14937384 0.339158844,10.0340724 C0.339158844,10.9187709 0.339158844,11.8565306 0.536878368,12.715736 C0.675608109,13.3189733 1.16886941,13.7640645 1.76291727,13.8304651 C3.1694827,13.9877218 4.59338935,13.9883146 6.01107094,13.9877218 C7.42890075,13.9884628 8.85251096,13.9877218 10.259521,13.8304651 C10.8532725,13.7640645 11.3468302,13.3189733 11.4855599,12.715736 C11.6831312,11.8565306 11.6841688,10.9187709 11.6841688,10.0340724 C11.6840205,9.14922563 11.6855027,8.21146594 11.4879314,7.35226048 Z M3.57514862,8.01819288 L2.75403456,8.01819288 L2.75403456,12.3813618 L1.99131741,12.3813618 L1.99131741,8.01819288 L1.18517312,8.01819288 L1.18517312,7.30349757 L3.57514862,7.30349757 L3.57514862,8.01819288 Z M5.64675715,12.38151 L4.96066744,12.38151 L4.96066744,11.9687298 C4.68809907,12.2811681 4.42931475,12.4335337 4.17720012,12.4335337 C3.95621076,12.4335337 3.80414162,12.3440115 3.73551783,12.1523688 C3.69816751,12.0379464 3.67504589,11.856827 3.67504589,11.5897426 L3.67504589,8.59786384 L4.36054274,8.59786384 L4.36054274,11.3835748 C4.36054274,11.5442405 4.36054274,11.6276858 4.36676779,11.6502146 C4.38321972,11.7566333 4.43524337,11.8105838 4.527137,11.8105838 C4.66468102,11.8105838 4.80845009,11.7046097 4.96051923,11.4895489 L4.96051923,8.59786384 L5.64660894,8.59786384 L5.64675715,12.38151 L5.64675715,12.38151 Z M8.25134875,11.2458826 C8.25134875,11.5958195 8.22778248,11.8479341 8.18198388,12.0083033 C8.09038668,12.2897646 7.90704406,12.4335337 7.63432748,12.4335337 C7.39036471,12.4335337 7.15499844,12.2980647 6.92570901,12.014973 L6.92570901,12.3816582 L6.24021216,12.3816582 L6.24021216,7.30349757 L6.92570901,7.30349757 L6.92570901,8.96188119 C7.14714302,8.68931282 7.38221285,8.55147238 7.63432748,8.55147238 C7.90704406,8.55147238 8.0905349,8.69509323 8.18198388,8.97833312 C8.22807891,9.13055047 8.25134875,9.38073829 8.25134875,9.73897524 L8.25134875,11.2458826 Z M10.8387473,10.6146326 L9.46760543,10.6146326 L9.46760543,11.2853079 C9.46760543,11.6355412 9.58217604,11.8104356 9.81783874,11.8104356 C9.98665624,11.8104356 10.0849231,11.7186901 10.124052,11.5354957 C10.1304253,11.4982936 10.1394665,11.3459281 10.1394665,11.0709883 L10.8388956,11.0709883 L10.8388956,11.1710337 C10.8388956,11.3920231 10.8304473,11.5442405 10.8242222,11.612716 C10.8012488,11.7644887 10.7472984,11.902181 10.6641494,12.0234213 C10.4742853,12.2982129 10.1929723,12.4336819 9.83488353,12.4336819 C9.47620193,12.4336819 9.20318892,12.3045862 9.00502475,12.0462465 C8.85962531,11.856827 8.78492468,11.5586174 8.78492468,11.1565086 L8.78492468,9.83131352 C8.78492468,9.42683333 8.85117702,9.13099512 8.99687289,8.93979708 C9.19488885,8.68086454 9.46775365,8.55191702 9.81798696,8.55191702 C10.1619952,8.55191702 10.4347118,8.68086454 10.6267991,8.93979708 C10.77042,9.13099512 10.8390438,9.42683333 10.8390438,9.83131352 L10.8390438,10.6146326 L10.8387473,10.6146326 Z"/>
    <path d="M9.74928976,9.16879008 C9.56176075,9.16879008 9.46775365,9.34383263 9.46775365,9.69362129 L9.46775365,10.0437064 L10.0287638,10.0437064 L10.0287638,9.69362129 C10.0286425,9.34383263 9.93487798,9.16879008 9.74928976,9.16879008 Z M7.18688403,9.16879008 C7.1005692,9.16879008 7.01312163,9.22214767 6.92556079,9.33553256 L6.92556079,11.6416181 C7.01300836,11.7563369 7.1005692,11.8105838 7.18688403,11.8105838 C7.33799162,11.8105838 7.41479143,11.6416181 7.41479143,11.2999813 L7.41479143,9.68502479 C7.41479143,9.34383263 7.33799162,9.16879008 7.18688403,9.16879008 Z M7.65048297,5.73167182 C7.90319046,5.73167182 8.16612482,5.57812053 8.44195393,5.26212501 L8.44195393,5.67920352 L9.13486156,5.67920352 L9.13486156,1.85539093 L8.44195393,1.85539093 L8.44195393,4.77790485 C8.28840264,4.9948924 8.14285498,5.10220044 8.00427345,5.10220044 C7.91149053,5.10220044 7.85694721,5.0473607 7.84182923,4.93990443 C7.83338094,4.91722746 7.83338094,4.83289282 7.83338094,4.67059681 L7.83338094,1.85539093 L7.14269655,1.85539093 L7.14269655,4.87898785 C7.14269655,5.14903655 7.16581817,5.33178631 7.20405778,5.44754264 C7.27371908,5.64126035 7.42741859,5.73167182 7.65048297,5.73167182 Z M2.82680838,3.60107351 L2.82680838,5.67920352 L3.59515772,5.67920352 L3.59515772,3.60107351 L4.51942979,0.548129915 L3.74248396,0.548129915 L3.21824561,2.56312011 L2.67281244,0.548129915 L1.8642967,0.548129915 C2.02629628,1.02375357 2.19481734,1.50174867 2.35681692,1.97781697 C2.60329936,2.69340157 2.75714708,3.23290612 2.82680838,3.60107351 Z M5.54923133,5.73167182 C5.89635212,5.73167182 6.16610439,5.60109394 6.35745064,5.34023459 C6.50285008,5.14888834 6.57251139,4.84741794 6.57251139,4.44101094 L6.57251139,3.1020318 C6.57251139,2.69325335 6.5029983,2.39445083 6.35745064,2.20132599 C6.16610439,1.93972557 5.89650033,1.80914769 5.54923133,1.80914769 C5.20388914,1.80914769 4.93428508,1.93972557 4.74249417,2.20132599 C4.59531615,2.39445083 4.52565485,2.69325335 4.52565485,3.1020318 L4.52565485,4.44101094 C4.52565485,4.84741794 4.59531615,5.14888834 4.74249417,5.34023459 C4.93413686,5.60109394 5.20388914,5.73167182 5.54923133,5.73167182 Z M5.21856247,2.96315384 C5.21856247,2.60936336 5.32587052,2.43298687 5.54923133,2.43298687 C5.77259214,2.43298687 5.87960376,2.60921514 5.87960376,2.96315384 L5.87960376,4.57158883 C5.87960376,4.92537931 5.77259214,5.10234866 5.54923133,5.10234866 C5.32587052,5.10234866 5.21856247,4.92537931 5.21856247,4.57158883 L5.21856247,2.96315384 Z"/>
  </g>
</svg>
